<svg width="64" height="64" viewBox="0 0 64 64" fill="none" xmlns="http://www.w3.org/2000/svg">
    <!-- Scope ring -->
    <circle cx="32" cy="32" r="30" stroke="#00d4aa" stroke-width="2" fill="none"/>
    
    <!-- Fine crosshair lines -->
    <line x1="32" y1="2" x2="32" y2="26" stroke="#00d4aa" stroke-width="0.75" opacity="0.5"/>
    <line x1="32" y1="38" x2="32" y2="62" stroke="#00d4aa" stroke-width="0.75" opacity="0.5"/>
    <line x1="2" y1="32" x2="26" y2="32" stroke="#00d4aa" stroke-width="0.75" opacity="0.5"/>
    <line x1="38" y1="32" x2="62" y2="32" stroke="#00d4aa" stroke-width="0.75" opacity="0.5"/>
    
    <!-- Crosshair tick marks -->
    <line x1="32" y1="2" x2="32" y2="8" stroke="#00d4aa" stroke-width="2.5"/>
    <line x1="32" y1="56" x2="32" y2="62" stroke="#00d4aa" stroke-width="2.5"/>
    <line x1="2" y1="32" x2="8" y2="32" stroke="#00d4aa" stroke-width="2.5"/>
    <line x1="56" y1="32" x2="62" y2="32" stroke="#00d4aa" stroke-width="2.5"/>
    
    <!-- Center circle -->
    <circle cx="32" cy="32" r="6" stroke="#00d4aa" stroke-width="1" fill="none" opacity="0.6"/>
    <circle cx="32" cy="32" r="2.5" fill="#00d4aa"/>
    
    <!-- Candle 1 - Green -->
    <line x1="10.5" y1="37" x2="10.5" y2="50" stroke="#00d4aa" stroke-width="1.5"/>
    <rect x="8" y="40" width="5" height="8" fill="#00d4aa"/>
    
    <!-- Candle 2 - Green -->
    <line x1="18.5" y1="28" x2="18.5" y2="46" stroke="#00d4aa" stroke-width="1.5"/>
    <rect x="16" y="32" width="5" height="12" fill="#00d4aa"/>
    
    <!-- Candle 3 - RED -->
    <line x1="26.5" y1="33" x2="26.5" y2="47" stroke="#ef4444" stroke-width="1.5"/>
    <rect x="24" y="36" width="5" height="8" fill="#ef4444"/>
    
    <!-- Candle 4 - Green -->
    <line x1="34.5" y1="30" x2="34.5" y2="48" stroke="#00d4aa" stroke-width="1.5"/>
    <rect x="32" y="34" width="5" height="12" fill="#00d4aa"/>
    
    <!-- Candle 5 - RED -->
    <line x1="42.5" y1="37" x2="42.5" y2="50" stroke="#ef4444" stroke-width="1.5"/>
    <rect x="40" y="40" width="5" height="8" fill="#ef4444"/>
    
    <!-- Candle 6 - Green Breakout -->
    <line x1="50.5" y1="10" x2="50.5" y2="36" stroke="#00d4aa" stroke-width="1.5"/>
    <rect x="48" y="16" width="5" height="18" fill="#00d4aa"/>
</svg>
