<?xml version="1.0" encoding="UTF-8"?>
<svg xmlns="http://www.w3.org/2000/svg" width="1600" height="420" viewBox="0 0 1600 420" role="img" aria-label="Trading Target Tracker horizontal logo (light)">
  <defs>
    <linearGradient id="cyan" x1="0" y1="1" x2="1" y2="0">
      <stop offset="0%" stop-color="#38BDF8"/>
      <stop offset="100%" stop-color="#0EA5E9"/>
    </linearGradient>
  </defs>

  <!-- icon -->
  <g transform="translate(40,30) scale(3.2)">
    <!-- reuse 100x100 mark geometry -->
    <circle cx="50" cy="50" r="36" fill="none" stroke="#0F172A" stroke-width="6.5"/>
    <circle cx="50" cy="50" r="24" fill="none" stroke="#0F172A" stroke-opacity="0.55" stroke-width="3.2"/>
    <g stroke="#0F172A" stroke-width="4.2" stroke-linecap="round" opacity="0.95">
      <line x1="50" y1="10" x2="50" y2="25"/>
      <line x1="50" y1="75" x2="50" y2="90"/>
      <line x1="10" y1="50" x2="25" y2="50"/>
      <line x1="75" y1="50" x2="90" y2="50"/>
    </g>
    <g stroke="#0F172A" stroke-opacity="0.55" stroke-width="2.2" stroke-linecap="round">
      <line x1="50" y1="18" x2="50" y2="20.5"/>
      <line x1="50" y1="79.5" x2="50" y2="82"/>
      <line x1="18" y1="50" x2="20.5" y2="50"/>
      <line x1="79.5" y1="50" x2="82" y2="50"/>
      <line x1="23.5" y1="23.5" x2="25.3" y2="25.3"/>
      <line x1="76.5" y1="23.5" x2="74.7" y2="25.3"/>
      <line x1="23.5" y1="76.5" x2="25.3" y2="74.7"/>
      <line x1="76.5" y1="76.5" x2="74.7" y2="74.7"/>
    </g>
    <circle cx="50" cy="50" r="1.6" fill="#0F172A" opacity="0.9"/>

    <line x1="34" y1="72" x2="34" y2="46" stroke="#0F172A" stroke-width="2.1" stroke-linecap="round" opacity="0.95"/>
    <rect x="30.8" y="58" width="6.4" height="12" rx="1.3" fill="#22C55E"/>

    <line x1="46" y1="66" x2="46" y2="40" stroke="#0F172A" stroke-width="2.1" stroke-linecap="round" opacity="0.95"/>
    <rect x="42.8" y="50" width="6.4" height="10" rx="1.4" fill="#FB7185"/>

    <line x1="58" y1="70" x2="58" y2="26" stroke="#0F172A" stroke-width="2.1" stroke-linecap="round" opacity="0.95"/>
    <rect x="54.1" y="38" width="7.8" height="22" rx="1.6" fill="#22C55E"/>

    <path d="M32 64 C 42 56, 52 50, 62 38 S 74 28, 78 24" fill="none" stroke="url(#cyan)" stroke-width="4.2" stroke-linecap="round" stroke-linejoin="round"/>
    <path d="M78 24 L74.5 24" fill="none" stroke="url(#cyan)" stroke-width="4.2" stroke-linecap="round"/>
    <path d="M78 24 L78 27.5" fill="none" stroke="url(#cyan)" stroke-width="4.2" stroke-linecap="round"/>
    <circle cx="78" cy="24" r="7.2" fill="none" stroke="url(#cyan)" stroke-opacity="0.75" stroke-width="2.2"/>
    <circle cx="78" cy="24" r="4.4" fill="url(#cyan)"/>
  </g>

  <!-- wordmark -->
  <g transform="translate(460,155)">
    <text x="0" y="0" font-family="ui-sans-serif, system-ui, -apple-system, Segoe UI, Roboto, Inter, Helvetica, Arial" font-weight="900" font-size="92" fill="#0F172A">Trading Target</text>
    <text x="0" y="98" font-family="ui-sans-serif, system-ui, -apple-system, Segoe UI, Roboto, Inter, Helvetica, Arial" font-weight="700" font-size="78" fill="#0F172A" fill-opacity="0.82">Tracker</text>
    <rect x="0" y="122" width="760" height="10" rx="5" fill="url(#cyan)" opacity="0.95"/>
  </g>
</svg>
